<svg width="860" height="500" viewBox="0 0 860 500" fill="none" xmlns="http://www.w3.org/2000/svg">
<mask id="mask0_1_48" style="mask-type:alpha" maskUnits="userSpaceOnUse" x="28" y="188" width="773" height="272">
<path d="M670.5 407.67L751.5 432.67L800.5 364.17L732 309.67L723 224.17L670.5 217.67L678.5 195.67L649 188.17L633 217.67L574 243.67L556 309.67L451 268.67L336 332.67L264.5 280.17L49.5 297.17L28 364.17L119 459.67L254.5 441.67L346.5 393.67L451 416.67L574 407.67H670.5Z" fill="#D4D4D4"/>
</mask>
<g mask="url(#mask0_1_48)">
<path d="M670.5 407.67L751.5 432.67L800.5 364.17L732 309.67L723 224.17L670.5 217.67L678.5 195.67L649 188.17L633 217.67L574 243.67L556 309.67L451 268.67L336 332.67L264.5 280.17L49.5 297.17L28 364.17L119 459.67L254.5 441.67L346.5 393.67L451 416.67L574 407.67H670.5Z" fill="#D4D4D4"/>
<path d="M611.5 224.5L644 171L687 183L682.5 258L777.5 328L741.5 395L687 362L611.5 400.5L457 390L280.5 441L285 400.5L337 332.5L398 273L493 328L536 284.5L587.5 292.5L617.5 265.5L611.5 224.5Z" fill="#FFFDB7"/>
</g>
<path d="M424.236 159.691L398.802 174.746L391.839 165.521L378.599 169.441L383.666 186.753L401.987 185.628L414.985 169.955L433.937 192.831L401.703 217.425L358.419 215.191L344.482 187.604L350.171 163.345L376.8 132.348L415.881 143.889L424.236 159.691Z" fill="#FF8D30"/>
<path d="M419.333 79.8289L428.233 125.738L425.463 221.454L463.147 222.557L453.931 187.569L454.879 154.807L465.303 148.04L488.422 188.578L494.5 253.17L536.5 229.17L526.874 185.203L478.245 142.632L521.893 114.335L504.062 76.4354L482.336 118.391L453.931 125.738L457.147 76.4354L419.333 79.8289Z" fill="#F37814"/>
<path fill-rule="evenodd" clip-rule="evenodd" d="M275.158 159.008L286.464 155.458L300.281 154.758L314.378 160.057L317.858 167.5L295.252 159.345L278.325 162.662L259.776 173.918L265.011 194.011L289.192 201.911L317.858 195.526L302.201 210.927L338.415 216.09L358.978 173.721L339.416 140.83L312.882 125.502L283.292 128.305L266.282 139.568L275.158 159.008ZM293.468 172.004L311.387 181.277L301.933 184.246L282.331 177.67L293.468 172.004Z" fill="#F34F14"/>
<path fill-rule="evenodd" clip-rule="evenodd" d="M259.776 173.918L278.325 162.662L295.252 159.345L317.858 167.5L314.378 160.057L300.281 154.758L286.464 155.458L275.158 159.008L266.282 139.568L283.292 128.305L312.882 125.502L339.416 140.83L358.978 173.721L338.415 216.09L302.201 210.927L317.858 195.526L289.192 201.911L265.011 194.011L259.776 173.918ZM311.387 181.277L301.933 184.246L282.331 177.67L293.468 172.004L311.387 181.277Z" fill="#F34F14"/>
<path fill-rule="evenodd" clip-rule="evenodd" d="M141 69.3646L157.434 155.803L147.756 229.101L214.265 220.941L207.956 208.133L200.136 189.877L219.989 179.399L234.999 189.823L224.5 235.17L277 249.5L262.865 184.256V140.351L215.453 126.816L188.863 137.135L200.213 64.1705L141 69.3646Z" fill="#FF8D30"/>
<path d="M541 178.5C535.5 175.667 524.2 169.8 523 169L516.5 151.5L527.5 148.5L523 133L536.5 128L557.5 136L567.5 151.5V182L550 186L541 178.5Z" fill="#FFAA2B"/>
<path fill-rule="evenodd" clip-rule="evenodd" d="M527.674 135.177L530.766 149.751L543.705 145.164L548.952 151.369L550.248 156.585L538.815 150.194L522.622 154.036L524.818 166.709L542.412 174.468L553.564 171.634L545.855 177.635L553.564 181.635L563.12 179.135L563.12 161.099L558.832 142.138L539.174 132.465L527.674 135.177ZM543.095 158.043L534.178 160.073C535.288 160.992 537.927 162.975 539.596 163.561C541.266 164.147 546.421 164.897 548.789 165.198L543.095 158.043Z" fill="#7F3A02"/>
<path d="M152.5 435.5C118.5 432.5 49.8 426.4 47 426L85.5 325L87 278.5L58.5 234.5L87 227H138V248L165 231L242 248L256 278.5L250.5 305H268.5L301.5 327L314.5 307.5L381.5 278.5L400.5 298.5V288L370 227H451L438 264.5V290.5L448.5 298.5L514.5 255L543.5 298.5L555.5 288L596 290.5V258.5L684.5 230.5L801 258.5L788.5 324L743 278.5L715 290.5V352.5L724.5 378L745.5 439.5H637L642 421L617.5 435.5H551L540 429L482.5 435.5L489.5 400L459 345L442 348L431 373L459 439.5H376L381.5 421C372 422.667 352.5 426 350.5 426C348.5 426 329 413 319.5 406.5L314.5 413.5L272 426L256 421V429C231 428 180.4 426 178 426C175.6 426 177 403.333 178 392L134.5 357.5L131.5 365.5L152.5 435.5Z" fill="white"/>
<path d="M377.588 231.657L408.804 294.106L385.574 433.13H444.374L424.048 370.681L434.937 346.147L463.249 334.996L495.19 401.905L490.108 428.669L546.731 420.491L513.338 362.503L481.397 323.844L533.664 302.284L513.338 261.395L463.249 294.106L434.937 310.462V261.395L444.374 231.657H377.588Z" fill="#FFAA2B"/>
<path fill-rule="evenodd" clip-rule="evenodd" d="M608.435 378.115L650.539 360.273L638.198 303.771L556.168 293.363L514.79 340.2V404.879L556.168 430.156H608.435L650.539 411.57L642.554 372.911L608.435 389.267L570.687 378.115H608.435ZM593.917 330.535L570.687 340.2V352.095H608.435L593.917 330.535Z" fill="#F37814"/>
<path d="M600.45 261.664V289.646L615.694 314.179L646.91 272.547L673.043 282.955L669.172 354.777L646.91 433.873H733.054L709.824 354.777L705.71 282.211L745.637 272.547L786.289 314.179L795 261.664L683.69 234.631L600.45 261.664Z" fill="#FFAA2B"/>
<path fill-rule="evenodd" clip-rule="evenodd" d="M226.594 320.127L263.617 309.719L312.98 341.687L324.595 369.937L312.98 404.136L270.876 417.518L226.594 404.136L213.528 341.687L226.594 320.127ZM283.217 345.404L263.617 341.687L250.55 355.069L257.084 369.937H279.587L283.217 345.404Z" fill="#E56700"/>
<path d="M422.041 358.157L378.744 359.079L376.442 341.886L356.707 337.246L350.797 363.61L375.029 375.65L402.865 364.75L410.728 408.624L351.911 416.998L298.163 382.16L300.084 335.828L324.718 308.317L380.952 287.441L422.665 331.344L422.041 358.157Z" fill="#FF8D30"/>
<path fill-rule="evenodd" clip-rule="evenodd" d="M63.9853 236.861L91.5707 279.981V332.765L56 419.748L141.66 427.926L123.512 363.246L132.223 348.378L187.394 385.55V419.748H249.098L238.935 363.246L157.631 332.765L199.735 339.456L238.935 327.561L249.098 279.981L238.935 250.987L169.246 236.861L132.223 257.678V230.17H87.2151L63.9853 236.861ZM199.735 268.829L165.616 277.007L172.875 292.62L192.475 294.106L212.076 287.415L199.735 268.829Z" fill="#FFAA2B"/>
<rect x="685.398" y="64.1705" width="40" height="134" transform="rotate(18.671 685.398 64.1705)" fill="#504343"/>
<path d="M723 77.1581L685 64.6581C685 64.6581 704 27.6581 718 33.6581C732 39.6581 723 77.1581 723 77.1581Z" fill="#D20707"/>
<path d="M626 154.5L662 150L649.5 188L616 177L626 154.5Z" fill="#D20707"/>
<path d="M715.121 184.692L690.549 158L675.542 195.081L708.219 208.327L715.121 184.692Z" fill="#D20707"/>
</svg>
